<?xml version="1.0" encoding="utf-8"?>
<!-- Generator: Adobe Illustrator 23.0.1, SVG Export Plug-In . SVG Version: 6.00 Build 0)  -->
<svg version="1.1" id="Layer_1" xmlns="http://www.w3.org/2000/svg" xmlns:xlink="http://www.w3.org/1999/xlink" x="0px" y="0px"
	 viewBox="0 0 452 226" style="enable-background:new 0 0 452 226;" xml:space="preserve">
<style type="text/css">
	.st0{fill:#FFFFFF;}
	.st1{fill:#FF0000;}
</style>
<path class="st0" d="M3.5,32.02c0-8.67,0-17.33,0-26c55.5,0,111,0,166.5,0c-0.21,0.13-0.4,0.32-0.63,0.39
	c-3.49,1.09-5.42,3.55-5.72,7.08c-0.29,3.47,1.43,6.03,4.42,7.77c3.16,1.83,6.25,3.79,9.49,5.47c0.83,0.43,2.28,0.42,3.11-0.02
	c3.36-1.8,6.62-3.81,9.86-5.82c2.68-1.66,4.02-4.11,3.88-7.31c-0.17-3.93-2.8-5.93-5.91-7.56c87,0,174,0,261,0c0,34,0,68,0,102
	c-0.15-0.46-0.38-0.91-0.45-1.38c-2.12-14.75-13.21-26.31-27.83-28.99c-14.29-2.62-28.82,4.2-35.94,17.05
	c-1.5,2.7-2.5,5.68-3.75,8.57c-8.99-17.41-23.02-27.09-42.9-25.86c-19.89,1.23-32.62,12.61-39.75,30.93c0-2.88,0-5.76,0-8.67
	c-6.48,0-12.77,0-19.41,0c0,6.35,0,12.55,0,18.76c-3.68-10.4-12.25-16.15-20.61-22.08c0.14-0.22,0.29-0.44,0.43-0.67
	c5.54,0,11.08,0,16.64,0c0-6.24,0-12.2,0-18.24c-7.53,0-14.9,0-22.57,0c0,4.92,0,9.68,0,14.75c-3.69-2.73-7.04-5.21-10.38-7.68
	c-3.26-2.41-6.2-5.76-9.85-6.96c-3.69-1.21-8.08-0.28-12.16-0.28c-3.05,0-6.1,0-9.21,0c0-11.66,0-22.94,0-34.54
	c2.37,0,4.57,0,6.83,0c0-3.69,0-7.06,0-10.71c-2.38,0-4.59,0-6.74,0c-0.95-7.68,0.61-11.24,7.75-13.22c0-3.38,0-6.75,0-10.54
	c-2.34,0.53-4.5,0.79-6.49,1.52c-7.28,2.65-12.03,9.54-12.08,17.32c-0.04,5.93-0.01,11.87-0.01,17.8c-0.63-0.38-0.84-0.8-1.05-1.23
	c-5.09-10.29-15.58-15.37-26.33-12.77c-10.61,2.57-17.96,12.39-17.7,23.66c0.26,11.25,8,20.76,18.84,22.72
	c2.98,0.54,6.12,0.16,9.19,0.2l-0.04-0.05c-0.49,0.21-0.96,0.52-1.47,0.63c-7.65,1.64-14.47,4.98-20.24,10.26
	c-2.53,2.31-4.73,4.99-7.47,7.92c0-17.79,0-35.13,0-52.44c-6.72,0-13.09,0-19.7,0c0,13.47,0,26.74,0,39.94
	c-0.32,0.09-0.42,0.16-0.47,0.13c-0.58-0.33-1.15-0.67-1.73-1c-9.42-5.54-19.54-7.02-30.09-4.51c-22.52,5.35-36.35,27.11-32.3,50.47
	c3.12,18.03,17.6,32.4,35.38,35.1c17.93,2.73,35.45-6.37,43.97-22.84c0.44-0.85,0.87-1.71,1.39-2.73
	c11.84,26.45,47.01,35.35,70.02,14.52c8.84,9.14,19.58,13.01,32.15,10.61c12.66-2.42,21.04-10.26,26.26-21.93
	c0,7.29,0,14.59,0,22.02c6.56,0,12.91,0,19.48,0c0-10.35,0-20.52,0-30.68c4.27,12.75,12.47,21.71,24.37,27.8
	c8.8,4.5,17.21,9.78,25.74,14.81c5.31,3.13,8.18,9.44,7.11,15.1c-1.22,6.43-5.97,11.21-12.21,12.31
	c-6.07,1.06-12.26-1.86-15.38-7.46c-0.72-1.29-1.48-1.8-2.91-1.71c-1.83,0.11-3.66,0.03-5.5,0.03c-4.05,0-8.1,0-12.35,0
	c0.14,0.98,0.17,1.63,0.33,2.25c3.02,11.94,10.32,20.11,21.82,24.45c2.38,0.9,4.93,1.38,7.4,2.06c-111.33,0-222.67,0-334,0
	c0-62.5,0-125,0-187.5c0.32,0.73,0.65,1.47,0.97,2.2c1.58,3.68,5.28,5.87,9.2,5.52c3.42-0.31,5.68-2.37,7.55-5.12
	c1.78,2.82,3.99,4.7,7.23,5.09c3.21,0.38,5.99-0.62,8.68-3.23c0,3.86,0,7.08,0,10.42c1.41,0,2.63,0,4.16,0c0-2.76,0-5.45,0-8.23
	c6.42,2.01,9.07,1.28,13.01-3.42c4.85,4.82,5.67,5.06,12.29,3.57c0.27-0.06,0.59-0.06,0.86,0.01c1.32,0.33,2.62,0.69,4.13,1.09
	c0-6.54,0-12.49,0-18.86c-3.09,0.64-5.95,0.47-8.86,0.05c-3.64-0.53-6.25,1.7-8.4,4.56c-2.63-3.73-6.04-5.56-10.41-4.32
	c-5.72,1.63-7.1,6.19-6.93,11.03c-2.66,1.23-4.98,2.3-7.29,3.38c-0.12-0.19-0.24-0.39-0.36-0.58c1.99-2.32,3.99-4.64,5.98-6.96
	c2.7-3.16,2.5-4.63-1.52-6.15c-2.04-0.77-4.55-0.86-6.74-0.51c-1.72,0.27-3.27,1.67-5.12,2.69c0-2.75,0-5.44,0-8.14
	c-1.46,0-2.66,0-4.13,0c0,2.09,0,4.02,0,6.01c-6.23-1.92-10.01-1-12.61,3.07C4.47,29.36,4.06,30.74,3.5,32.02z M149.7,42.5
	c0-4.36,0.32-8.45-0.09-12.47c-0.41-3.94-4.02-6.36-7.91-5.99c-3.74,0.36-6.49,3.35-6.61,7.22c-0.05,1.55-0.01,3.1-0.01,3.96
	c-3.14,1.32-5.69,2.39-8.24,3.46c-0.1-0.18-0.2-0.36-0.3-0.54c2.77-3.26,5.53-6.52,8.31-9.79c-2.08-2.84-4.58-4.28-7.8-4.33
	c-4.03-0.06-6.84,2.02-8.84,5.43c-3.54-5.97-6.87-6.87-12.82-3.53c-0.62-0.38-1.23-0.81-1.9-1.14c-4.19-2.05-9.68,0.12-10.29,4.59
	c-0.59,4.29-0.13,8.73-0.13,13.04c1.43,0,2.63,0,3.99,0c0-3.67-0.07-7.16,0.02-10.65c0.07-2.87,2.73-4.53,4.72-2.87
	c0.87,0.72,1.44,2.23,1.51,3.42c0.2,3.37,0.07,6.76,0.07,10.11c1.58,0,2.78,0,4.17,0c0-3.41-0.02-6.64,0.01-9.88
	c0.02-2.69,1.2-4.22,3.18-4.24c2.01-0.01,3.13,1.46,3.14,4.22c0.02,3.3,0,6.6,0,9.91c1.56,0,2.77,0,4.07,0
	c0.07-1.57,0.14-2.99,0.23-4.93c2.19,3.22,4.63,5.05,8.07,5.25c3.49,0.2,6.23-1.26,8.65-4.16c0.11,1.55,0.2,2.67,0.28,3.85
	c1.37,0,2.58,0,4.04,0c0-3.46-0.05-6.78,0.02-10.09c0.05-2.61,1.19-4.01,3.12-4.05c1.98-0.05,3.17,1.49,3.19,4.17
	c0.02,3.31,0,6.61,0,10.02C147.13,42.5,148.36,42.5,149.7,42.5z M279.71,77.43c0,6.12,0,12.07,0,18.14c6.47,0,12.82,0,19.14,0
	c0-6.16,0-12.12,0-18.14C292.41,77.43,286.12,77.43,279.71,77.43z M86.13,19.05c0,7.97,0,15.68,0,23.44c1.39,0,2.62,0,4.12,0
	c0-4.65,0-9.2,0-13.82c1.03-0.17,1.82-0.3,2.57-0.43c0-1.42,0-2.7,0-3.99c-0.9-0.12-1.61-0.22-2.43-0.32
	c-0.1-1.68-0.18-3.23-0.28-4.88C88.75,19.05,87.52,19.05,86.13,19.05z M157.47,24.16c-0.89-0.1-1.69-0.19-2.58-0.29
	c-0.1-1.66-0.19-3.2-0.29-4.84c-1.39,0-2.61,0-3.95,0c0,7.86,0,15.63,0,23.45c1.38,0,2.6,0,4.17,0c0-4.8,0-9.49,0-14.13
	c1.12-0.21,1.89-0.36,2.64-0.51C157.47,26.55,157.47,25.41,157.47,24.16z M72.49,42.45c1.46,0,2.67,0,4.1,0
	c0-3.54-0.06-6.93,0.02-10.32c0.06-2.86,2.02-4.45,4.32-3.59c0.66,0.25,1.23,0.7,1.91,1.1c1.01-0.93,1.9-1.75,2.78-2.56
	c-2.14-2.72-4.88-3.65-7.8-2.79c-3.01,0.89-5.15,3.18-5.28,6.23C72.35,34.42,72.49,38.32,72.49,42.45z"/>
<path d="M183.96,77.48c-3.07-0.04-6.21,0.33-9.19-0.2c-10.84-1.96-18.58-11.47-18.84-22.72c-0.26-11.26,7.09-21.09,17.7-23.66
	c10.76-2.6,21.24,2.48,26.33,12.77c0.21,0.43,0.42,0.85,1.05,1.23c0-5.93-0.03-11.87,0.01-17.8c0.05-7.78,4.8-14.67,12.08-17.32
	c1.99-0.73,4.16-0.98,6.49-1.52c0,3.79,0,7.16,0,10.54c-7.13,1.98-8.7,5.54-7.75,13.22c2.16,0,4.37,0,6.74,0c0,3.65,0,7.02,0,10.71
	c-2.25,0-4.46,0-6.83,0c0,11.6,0,22.89,0,34.54c3.11,0,6.16,0,9.21,0c4.08,0,8.47-0.93,12.16,0.28c3.65,1.2,6.6,4.55,9.85,6.96
	c3.34,2.47,6.69,4.95,10.38,7.68c0-5.08,0-9.83,0-14.75c7.67,0,15.04,0,22.57,0c0,6.04,0,12,0,18.24c-5.56,0-11.1,0-16.64,0
	c-0.14,0.22-0.29,0.44-0.43,0.67c8.36,5.93,16.94,11.68,20.61,22.08c0-6.2,0-12.41,0-18.76c6.64,0,12.93,0,19.41,0
	c0,2.9,0,5.78,0,8.67c7.13-18.31,19.86-29.69,39.75-30.93c19.88-1.23,33.91,8.46,42.9,25.86c1.25-2.9,2.25-5.87,3.75-8.57
	c7.12-12.85,21.64-19.67,35.94-17.05c14.62,2.68,25.71,14.24,27.83,28.99c0.07,0.47,0.3,0.92,0.45,1.38c0,18.5,0,37,0,55.5
	c-6.45,0-12.91,0-19.5,0c0-1.21,0-2.12,0-3.02c0-16.33,0-32.66,0-48.99c0-5.03-2.07-9.07-6.07-11.99
	c-4.77-3.48-10.03-4.03-15.32-1.37c-5.54,2.79-8.33,7.49-8.34,13.73c-0.02,16.16-0.01,32.33-0.01,48.49c0,0.98,0,1.96,0,3.01
	c-6.57,0-12.85,0-19.42,0c0-7.8,0-15.46,0-23.11c-4.79,8.47-11.25,14.99-19.94,19.53c0.69,0.58,1.23,1.07,1.81,1.51
	c19.76,15.35,16.72,46.43-5.74,57.49c-3.44,1.69-7.3,2.51-10.97,3.73c-2.83,0-5.67,0-8.5,0c-2.47-0.67-5.01-1.16-7.4-2.06
	c-11.5-4.34-18.8-12.51-21.82-24.45c-0.16-0.62-0.19-1.28-0.33-2.25c4.25,0,8.3,0,12.35,0c1.83,0,3.67,0.08,5.5-0.03
	c1.43-0.08,2.19,0.42,2.91,1.71c3.12,5.6,9.31,8.53,15.38,7.46c6.24-1.09,10.99-5.88,12.21-12.31c1.07-5.66-1.8-11.97-7.11-15.1
	c-8.53-5.03-16.94-10.31-25.74-14.81c-11.9-6.09-20.1-15.05-24.37-27.8c0,10.16,0,20.33,0,30.68c-6.57,0-12.92,0-19.48,0
	c0-7.43,0-14.73,0-22.02c-5.22,11.67-13.59,19.51-26.26,21.93c-12.56,2.4-23.31-1.47-32.15-10.61
	c-23.01,20.84-58.18,11.94-70.02-14.52c-0.52,1.02-0.95,1.88-1.39,2.73c-8.51,16.47-26.04,25.57-43.97,22.84
	c-17.78-2.71-32.25-17.07-35.38-35.1c-4.05-23.36,9.78-45.12,32.3-50.47c10.55-2.51,20.66-1.03,30.09,4.51
	c0.57,0.34,1.15,0.68,1.73,1c0.05,0.03,0.15-0.04,0.47-0.13c0-13.2,0-26.47,0-39.94c6.61,0,12.98,0,19.7,0c0,17.31,0,34.65,0,52.44
	c2.74-2.93,4.94-5.6,7.47-7.92c5.77-5.28,12.59-8.62,20.24-10.26c0.51-0.11,0.98-0.42,1.47-0.63c1.07,0.01,2.14-0.04,3.21,0.02
	c4.63,0.27,9.35,0.11,13.87,0.98c4.23,0.81,8.24,2.73,12.39,4.17c-0.3-0.85-0.8-1.81-0.98-2.84c-0.34-1.93-1.34-2.51-3.27-2.38
	c-2.63,0.19-5.27,0.05-8.15,0.05c0-4.97,0-9.65,0-14.44c-1.77,2.56-3.25,5.03-5.07,7.24C192.81,74.02,188.46,75.92,183.96,77.48z
	 M365.5,120.84c0-13.37-10.77-24.26-24.04-24.32c-13.35-0.05-24.4,10.97-24.37,24.3c0.03,13.22,11.03,24.2,24.23,24.19
	C354.61,145.01,365.5,134.11,365.5,120.84z M112.26,96.44c-13.02-0.05-23.75,10.9-23.76,24.25c-0.01,13.33,10.72,24.34,23.7,24.33
	c12.92-0.01,23.83-11.24,23.7-24.4C135.78,107.36,125.15,96.49,112.26,96.44z M187.35,144.67c1.34,0.15,2.21,0.33,3.08,0.33
	c8.71,0.08,15.63-3.44,20.69-10.5c0.82-1.15,1.63-1.62,3.03-1.6c5.5,0.07,10.99,0.1,16.49-0.01c1.75-0.03,2.54,0.45,3.17,2.21
	c2.68,7.44,10.37,11.17,17.75,8.83c7.24-2.3,11.63-10.04,9.42-17.48c-0.81-2.74-2.34-5.8-4.5-7.52
	c-9.23-7.34-18.83-14.23-28.47-21.42C214.5,113.2,201.09,128.74,187.35,144.67z M202.06,99.39c-9.94-5.68-23.39-2.4-30.39,7.19
	c-7.06,9.67-5.21,22.43,0.18,28C181.91,122.86,191.97,111.14,202.06,99.39z M179.07,67.1c7.07-0.01,12.84-5.92,12.85-13.17
	c0.01-7.22-5.78-13.14-12.86-13.15c-7.1-0.01-12.79,5.84-12.8,13.16C166.24,61.21,171.98,67.1,179.07,67.1z"/>
<path class="st0" d="M346,222.52c3.67-1.22,7.53-2.04,10.97-3.73c22.45-11.06,25.5-42.13,5.74-57.49c-0.58-0.45-1.12-0.94-1.81-1.51
	c8.69-4.55,15.14-11.07,19.94-19.53c0,7.66,0,15.31,0,23.11c6.57,0,12.85,0,19.42,0c0-1.04,0-2.03,0-3.01
	c0-16.16-0.01-32.33,0.01-48.49c0.01-6.24,2.8-10.94,8.34-13.73c5.29-2.66,10.55-2.1,15.32,1.37c4.01,2.92,6.08,6.96,6.07,11.99
	c-0.01,16.33,0,32.66,0,48.99c0,0.91,0,1.81,0,3.02c6.59,0,13.05,0,19.5,0c0,19.67,0,39.33,0,59C415,222.52,380.5,222.52,346,222.52
	z"/>
<path d="M3.5,32.02c0.56-1.28,0.97-2.66,1.71-3.82c2.59-4.07,6.38-5,12.61-3.07c0-1.99,0-3.92,0-6.01c1.48,0,2.68,0,4.13,0
	c0,2.7,0,5.39,0,8.14c1.85-1.02,3.39-2.42,5.12-2.69c2.18-0.34,4.7-0.26,6.74,0.51c4.02,1.52,4.22,2.99,1.52,6.15
	c-1.99,2.32-3.99,4.64-5.98,6.96c0.12,0.19,0.24,0.39,0.36,0.58c2.31-1.07,4.63-2.14,7.29-3.38c-0.17-4.84,1.2-9.4,6.93-11.03
	c4.37-1.24,7.78,0.58,10.41,4.32c2.15-2.86,4.75-5.09,8.4-4.56c2.91,0.42,5.76,0.59,8.86-0.05c0,6.37,0,12.32,0,18.86
	c-1.51-0.4-2.82-0.76-4.13-1.09c-0.27-0.07-0.59-0.07-0.86-0.01c-6.62,1.48-7.44,1.25-12.29-3.57c-3.94,4.69-6.59,5.43-13.01,3.42
	c0,2.78,0,5.47,0,8.23c-1.53,0-2.74,0-4.16,0c0-3.34,0-6.56,0-10.42c-2.69,2.61-5.47,3.62-8.68,3.23c-3.25-0.39-5.45-2.27-7.23-5.09
	c-1.87,2.75-4.13,4.82-7.55,5.12c-3.93,0.35-7.62-1.84-9.2-5.52c-0.32-0.74-0.64-1.47-0.97-2.2C3.5,34.02,3.5,33.02,3.5,32.02z
	 M62.56,28.19c-2.69-0.04-5.04,2.33-5.06,5.11c-0.02,2.78,2.25,5.18,4.94,5.22c2.67,0.04,5.03-2.34,5.06-5.09
	C67.53,30.63,65.26,28.23,62.56,28.19z M12.8,28.17c-2.64,0.02-4.94,2.47-4.91,5.23c0.03,2.86,2.26,5.15,5,5.1
	c2.67-0.04,5.06-2.52,5.01-5.2C17.85,30.61,15.42,28.15,12.8,28.17z M51.23,33.52c0.06-2.83-2.1-5.16-4.86-5.23
	c-2.72-0.07-5.03,2.21-5.09,5.01c-0.06,2.81,2.13,5.15,4.88,5.21C48.92,38.58,51.17,36.36,51.23,33.52z M25.6,36.26
	c2.2-2.57,4.2-4.92,6.33-7.42c-2.68-0.99-4.58-0.43-6.06,1.31C24.41,31.88,24.1,33.83,25.6,36.26z"/>
<path class="st1" d="M188.5,6.02c3.11,1.63,5.74,3.63,5.91,7.56c0.14,3.2-1.2,5.65-3.88,7.31c-3.24,2.02-6.5,4.02-9.86,5.82
	c-0.83,0.44-2.28,0.45-3.11,0.02c-3.23-1.69-6.33-3.64-9.49-5.47c-2.99-1.73-4.71-4.29-4.42-7.77c0.3-3.53,2.22-6,5.72-7.08
	c0.23-0.07,0.42-0.26,0.63-0.39c1.17,0,2.33,0,3.5,0c1.93,1.42,3.85,2.84,5.51,4.06c1.77-1.31,3.63-2.69,5.49-4.06
	C185.84,6.02,187.17,6.02,188.5,6.02z"/>
<path class="st0" d="M184.5,6.02c-1.86,1.38-3.72,2.75-5.49,4.06c-1.65-1.22-3.58-2.64-5.51-4.06
	C177.17,6.02,180.84,6.02,184.5,6.02z"/>
<path d="M149.7,42.5c-1.34,0-2.57,0-4.12,0c0-3.4,0.01-6.71,0-10.02c-0.01-2.68-1.2-4.21-3.19-4.17c-1.93,0.04-3.07,1.44-3.12,4.05
	c-0.06,3.32-0.02,6.64-0.02,10.09c-1.46,0-2.67,0-4.04,0c-0.09-1.19-0.17-2.3-0.28-3.85c-2.42,2.91-5.17,4.36-8.65,4.16
	c-3.44-0.2-5.88-2.03-8.07-5.25c-0.09,1.93-0.15,3.36-0.23,4.93c-1.31,0-2.51,0-4.07,0c0-3.31,0.01-6.61,0-9.91
	c-0.01-2.76-1.12-4.23-3.14-4.22c-1.99,0.01-3.16,1.55-3.18,4.24c-0.02,3.24-0.01,6.47-0.01,9.88c-1.39,0-2.59,0-4.17,0
	c0-3.35,0.13-6.74-0.07-10.11c-0.07-1.19-0.64-2.7-1.51-3.42c-1.99-1.65-4.65,0.01-4.72,2.87c-0.09,3.49-0.02,6.98-0.02,10.65
	c-1.37,0-2.57,0-3.99,0c0-4.31-0.46-8.74,0.13-13.04c0.61-4.48,6.1-6.64,10.29-4.59c0.66,0.32,1.27,0.76,1.9,1.14
	c5.95-3.33,9.28-2.44,12.82,3.53c1.99-3.41,4.8-5.49,8.84-5.43c3.22,0.05,5.72,1.49,7.8,4.33c-2.77,3.27-5.54,6.53-8.31,9.79
	c0.1,0.18,0.2,0.36,0.3,0.54c2.55-1.07,5.1-2.14,8.24-3.46c0-0.86-0.04-2.41,0.01-3.96c0.12-3.88,2.87-6.87,6.61-7.22
	c3.89-0.37,7.5,2.05,7.91,5.99C150.03,34.05,149.7,38.14,149.7,42.5z M129.15,28.8c-2.88-0.92-4.91-0.36-6.38,1.68
	c-1.25,1.73-1.38,3.59,0.02,5.7C124.92,33.71,126.9,31.41,129.15,28.8z"/>
<path d="M279.71,77.43c6.41,0,12.7,0,19.14,0c0,6.03,0,11.98,0,18.14c-6.33,0-12.67,0-19.14,0
	C279.71,89.5,279.71,83.54,279.71,77.43z"/>
<path d="M86.13,19.05c1.39,0,2.62,0,3.98,0c0.09,1.65,0.18,3.2,0.28,4.88c0.82,0.11,1.53,0.21,2.43,0.32c0,1.29,0,2.57,0,3.99
	c-0.75,0.13-1.54,0.26-2.57,0.43c0,4.62,0,9.16,0,13.82c-1.5,0-2.72,0-4.12,0C86.13,34.73,86.13,27.02,86.13,19.05z"/>
<path d="M157.47,24.16c0,1.25,0,2.39,0,3.69c-0.75,0.14-1.53,0.29-2.64,0.51c0,4.65,0,9.34,0,14.13c-1.57,0-2.79,0-4.17,0
	c0-7.82,0-15.58,0-23.45c1.34,0,2.56,0,3.95,0c0.1,1.63,0.19,3.17,0.29,4.84C155.78,23.97,156.57,24.06,157.47,24.16z"/>
<path d="M72.49,42.45c0-4.13-0.13-8.03,0.04-11.93c0.14-3.05,2.27-5.35,5.28-6.23c2.92-0.86,5.67,0.07,7.8,2.79
	c-0.88,0.81-1.78,1.64-2.78,2.56c-0.67-0.4-1.25-0.85-1.91-1.1c-2.3-0.86-4.26,0.72-4.32,3.59c-0.07,3.39-0.02,6.78-0.02,10.32
	C75.15,42.45,73.95,42.45,72.49,42.45z"/>
<path class="st0" d="M365.5,120.84c0,13.28-10.89,24.17-24.18,24.18c-13.2,0.01-24.21-10.98-24.23-24.19
	c-0.03-13.33,11.03-24.36,24.37-24.3C354.73,96.57,365.5,107.46,365.5,120.84z"/>
<path class="st0" d="M112.26,96.44c12.89,0.05,23.52,10.92,23.64,24.18c0.12,13.16-10.79,24.39-23.7,24.4
	c-12.99,0.01-23.71-11-23.7-24.33C88.51,107.35,99.24,96.4,112.26,96.44z"/>
<path class="st0" d="M187.35,144.67c13.74-15.93,27.15-31.47,40.68-47.15c9.64,7.19,19.23,14.08,28.47,21.42
	c2.16,1.71,3.68,4.78,4.5,7.52c2.21,7.44-2.19,15.18-9.42,17.48c-7.37,2.34-15.07-1.39-17.75-8.83c-0.63-1.76-1.42-2.24-3.17-2.21
	c-5.5,0.11-10.99,0.08-16.49,0.01c-1.4-0.02-2.21,0.45-3.03,1.6c-5.06,7.06-11.99,10.58-20.69,10.5
	C189.56,145,188.69,144.82,187.35,144.67z"/>
<path class="st0" d="M202.06,99.39c-10.09,11.75-20.15,23.46-30.21,35.19c-5.38-5.57-7.24-18.33-0.18-28
	C178.67,97,192.12,93.71,202.06,99.39z"/>
<path class="st0" d="M179.07,67.1c-7.09,0.01-12.82-5.89-12.81-13.16c0.01-7.32,5.71-13.17,12.8-13.16
	c7.08,0.01,12.87,5.93,12.86,13.15C191.91,61.17,186.14,67.09,179.07,67.1z"/>
<path class="st0" d="M183.96,77.48c4.51-1.56,8.86-3.45,11.96-7.24c1.81-2.21,3.3-4.69,5.07-7.24c0,4.79,0,9.47,0,14.44
	c2.88,0,5.53,0.14,8.15-0.05c1.93-0.14,2.93,0.45,3.27,2.38c0.18,1.02,0.68,1.99,0.98,2.84c-4.14-1.44-8.16-3.36-12.39-4.17
	c-4.52-0.87-9.24-0.71-13.87-0.98c-1.07-0.06-2.14-0.02-3.21-0.02C183.92,77.43,183.96,77.48,183.96,77.48z"/>
<path class="st0" d="M62.56,28.19c2.7,0.04,4.97,2.44,4.94,5.23c-0.03,2.76-2.39,5.13-5.06,5.09c-2.69-0.04-4.96-2.44-4.94-5.22
	C57.52,30.53,59.88,28.15,62.56,28.19z"/>
<path class="st0" d="M12.8,28.17c2.61-0.02,5.05,2.44,5.1,5.14c0.05,2.68-2.34,5.15-5.01,5.2c-2.74,0.05-4.97-2.24-5-5.1
	C7.87,30.64,10.16,28.2,12.8,28.17z"/>
<path class="st0" d="M51.23,33.52c-0.06,2.85-2.31,5.06-5.07,5c-2.75-0.06-4.94-2.4-4.88-5.21c0.06-2.8,2.38-5.08,5.09-5.01
	C49.13,28.36,51.3,30.68,51.23,33.52z"/>
<path class="st0" d="M25.6,36.26c-1.5-2.44-1.19-4.39,0.28-6.12c1.47-1.74,3.38-2.3,6.06-1.31C29.8,31.34,27.8,33.69,25.6,36.26z"/>
<path class="st0" d="M129.15,28.8c-2.25,2.61-4.23,4.9-6.36,7.37c-1.4-2.11-1.27-3.97-0.02-5.7
	C124.24,28.45,126.27,27.88,129.15,28.8z"/>
</svg>
